<mxfile host="app.diagrams.net" modified="2023-04-09T09:22:10.445Z" agent="Mozilla/5.0 (Macintosh; Intel Mac OS X 10_15_7) AppleWebKit/537.36 (KHTML, like Gecko) Chrome/110.0.0.0 Safari/537.36" version="21.1.5" etag="rmhRHpC2uV1H0xASvImn" type="github">
  <diagram name="第 1 页" id="TiXI03_rzCV0CSOZ9mn0">
    <mxGraphModel>
      <root>
        <mxCell id="0" />
        <mxCell id="1" parent="0" />
      </root>
    </mxGraphModel>
  </diagram>
</mxfile>
